<svg width="586" height="120" viewBox="0 0 586 120" fill="none" xmlns="http://www.w3.org/2000/svg">
<g clip-path="url(#clip0_33_50)">
<path d="M32.7395 58.9551C37.9141 68.7073 45.8751 76.4693 56.6224 82.241C67.3698 88.0127 80.7376 91.7942 96.7259 93.5854C95.8634 94.5142 94.9346 95.642 93.9395 96.9688C93.0107 98.362 92.1151 99.7883 91.2527 101.248C90.3902 102.707 89.6605 104.034 89.0634 105.228C77.9181 103.57 68.0663 100.949 59.5083 97.3668C51.0166 93.8507 43.6527 89.24 37.4166 83.5346C31.1805 77.7629 25.8732 70.8634 21.4946 62.8361L32.7395 58.9551ZM11.7424 48.1083H75.5298V59.7512H11.7424V48.1083ZM6.86634 24.6234H92.2478V36.4654H6.86634V24.6234ZM43.1883 11.4878H55.6273V53.3824H43.1883V11.4878ZM71.7483 48.1083H74.2361L76.3259 47.6107L84.7844 52.3873C81.799 60.481 77.7854 67.5132 72.7434 73.4839C67.7678 79.4546 61.9961 84.5298 55.4283 88.7093C48.8605 92.8224 41.6956 96.2059 33.9337 98.8595C26.1717 101.513 17.9785 103.57 9.35415 105.029C9.02244 103.901 8.45854 102.608 7.66244 101.148C6.93268 99.6888 6.13659 98.2624 5.27415 96.8693C4.41171 95.4761 3.58244 94.3483 2.78634 93.4859C11.1454 92.3581 19.0068 90.7659 26.3707 88.7093C33.7346 86.5864 40.402 83.8332 46.3727 80.4498C52.4098 77 57.5844 72.8205 61.8966 67.9112C66.2088 62.9356 69.4927 57.0312 71.7483 50.1981V48.1083ZM115.434 87.5151H183.401V99.1581H115.434V87.5151ZM142.501 12.5824H154.841V94.68H142.501V12.5824ZM109.563 62.6371H121.703V105.029H109.563V62.6371ZM177.032 62.6371H189.471V104.93H177.032V62.6371ZM113.444 20.9415H125.385V45.6205H172.952V20.842H185.491V57.2634H113.444V20.9415ZM259.826 86.719C264.205 86.0556 268.219 85.0937 271.867 83.8332C275.516 82.5727 278.667 80.9473 281.321 78.9571C284.041 76.9668 286.131 74.5454 287.59 71.6927C289.05 68.7737 289.78 65.3571 289.78 61.4429C289.78 59.519 289.415 57.6615 288.685 55.8703C287.955 54.079 286.86 52.4868 285.401 51.0937C284.008 49.6342 282.316 48.5064 280.326 47.7103C278.336 46.9142 276.08 46.5161 273.559 46.5161C267.257 46.5161 261.385 48.1746 255.945 51.4917C250.505 54.7424 245.364 58.9551 240.521 64.1298V49.999C246.492 44.4263 252.496 40.5122 258.533 38.2566C264.636 36.001 270.341 34.8732 275.649 34.8732C280.757 34.8732 285.368 36.001 289.481 38.2566C293.66 40.5122 296.978 43.6634 299.432 47.7103C301.887 51.7571 303.114 56.4342 303.114 61.7415C303.114 66.7834 302.318 71.3278 300.726 75.3746C299.134 79.4215 296.779 82.9707 293.66 86.0224C290.542 89.0742 286.661 91.6615 282.018 93.7844C277.374 95.841 271.967 97.4995 265.797 98.76L259.826 86.719ZM237.237 43.5307C236.176 43.5971 234.816 43.7629 233.157 44.0283C231.499 44.2273 229.707 44.4595 227.783 44.7249C225.926 44.9239 224.035 45.1561 222.111 45.4215C220.187 45.6868 218.396 45.919 216.738 46.1181L215.444 33.3805C216.903 33.4468 218.263 33.48 219.524 33.48C220.851 33.4137 222.377 33.3473 224.101 33.281C225.694 33.1483 227.584 32.9824 229.774 32.7834C232.029 32.5181 234.285 32.2195 236.54 31.8878C238.862 31.5561 241.019 31.1912 243.009 30.7932C244.999 30.3951 246.558 29.9971 247.686 29.599L251.666 34.6742C251.069 35.4703 250.373 36.4654 249.577 37.6595C248.847 38.8537 248.084 40.081 247.288 41.3415C246.492 42.5356 245.795 43.5971 245.198 44.5259L239.327 63.2342C238.265 64.76 236.939 66.6839 235.346 69.0059C233.82 71.3278 232.195 73.7824 230.47 76.3698C228.745 78.9571 227.054 81.4449 225.395 83.8332C223.737 86.2215 222.244 88.3112 220.917 90.1024L213.056 79.2556C214.316 77.6634 215.776 75.839 217.434 73.7824C219.093 71.6595 220.784 69.4371 222.509 67.1151C224.3 64.7268 226.059 62.3717 227.783 60.0498C229.508 57.6615 231.1 55.439 232.56 53.3824C234.086 51.2595 235.346 49.4351 236.341 47.9093L236.54 45.322L237.237 43.5307ZM236.043 24.3249C236.043 22.8654 236.043 21.4059 236.043 19.9463C236.043 18.4205 235.91 16.8946 235.645 15.3688L250.174 15.8663C249.842 17.3922 249.444 19.6146 248.98 22.5337C248.515 25.3864 248.051 28.6703 247.586 32.3854C247.188 36.1005 246.79 40.0146 246.392 44.1278C246.06 48.1746 245.762 52.2215 245.497 56.2683C245.298 60.3151 245.198 64.0966 245.198 67.6127C245.198 70.3327 245.198 73.0859 245.198 75.8722C245.264 78.6585 245.331 81.5112 245.397 84.4303C245.463 87.3493 245.596 90.3678 245.795 93.4859C245.861 94.3483 245.961 95.5424 246.094 97.0683C246.226 98.6605 246.359 100.02 246.492 101.148H232.759C232.892 100.02 232.958 98.6937 232.958 97.1678C233.024 95.7083 233.058 94.5805 233.058 93.7844C233.124 90.5337 233.19 87.5151 233.257 84.7288C233.323 81.9424 233.356 78.9903 233.356 75.8722C233.422 72.7542 233.522 69.1385 233.655 65.0254C233.721 63.4995 233.82 61.5756 233.953 59.2537C234.086 56.8654 234.219 54.2781 234.351 51.4917C234.55 48.639 234.749 45.7532 234.948 42.8342C235.147 39.9151 235.313 37.1951 235.446 34.6742C235.645 32.0868 235.778 29.8976 235.844 28.1064C235.977 26.2488 236.043 24.9883 236.043 24.3249ZM389.889 16.961C389.756 18.0224 389.657 19.1503 389.59 20.3444C389.524 21.4722 389.458 22.6 389.391 23.7278C389.325 24.6566 389.292 26.0829 389.292 28.0068C389.358 29.8644 389.391 31.9873 389.391 34.3756C389.391 36.6976 389.391 39.0859 389.391 41.5405C389.391 43.9288 389.391 46.1512 389.391 48.2078C389.458 50.2644 389.491 51.8566 389.491 52.9844C389.491 58.8888 389.259 64.2624 388.794 69.1054C388.396 73.882 387.467 78.2937 386.008 82.3405C384.615 86.3873 382.459 90.1356 379.54 93.5854C376.687 97.0351 372.773 100.352 367.797 103.537L356.353 94.481C358.211 93.6849 360.267 92.5571 362.523 91.0976C364.779 89.5717 366.57 88.0459 367.897 86.52C369.82 84.5298 371.38 82.44 372.574 80.2507C373.768 78.0615 374.697 75.64 375.36 72.9864C376.09 70.3327 376.554 67.3805 376.753 64.1298C377.019 60.879 377.151 57.1307 377.151 52.8849C377.151 51.0937 377.151 48.8381 377.151 46.1181C377.151 43.3981 377.118 40.5785 377.052 37.6595C376.985 34.7405 376.919 32.0537 376.853 29.599C376.786 27.0781 376.687 25.1542 376.554 23.8273C376.488 22.5668 376.322 21.3063 376.057 20.0459C375.858 18.7854 375.659 17.7571 375.46 16.961H389.889ZM350.681 36.3659C352.273 36.5649 353.899 36.7639 355.557 36.9629C357.216 37.0956 358.874 37.2283 360.533 37.361C362.258 37.4273 363.982 37.4605 365.707 37.4605C370.02 37.4605 374.531 37.361 379.241 37.162C383.951 36.9629 388.496 36.6644 392.874 36.2664C397.253 35.802 401.067 35.2712 404.318 34.6742L404.219 47.6107C401.1 47.9424 397.419 48.2742 393.173 48.6059C388.927 48.8712 384.449 49.1034 379.739 49.3024C375.095 49.4351 370.517 49.5015 366.006 49.5015C364.613 49.5015 363.02 49.4683 361.229 49.402C359.438 49.3356 357.647 49.2693 355.856 49.2029C354.064 49.1366 352.34 49.0703 350.681 49.0039V36.3659ZM340.431 18.6527C340.033 19.8468 339.602 21.24 339.138 22.8322C338.673 24.3581 338.308 25.6517 338.043 26.7132C337.446 29.4332 336.816 32.7171 336.152 36.5649C335.489 40.3464 334.925 44.2937 334.46 48.4068C333.996 52.52 333.764 56.5668 333.764 60.5473C333.764 64.4615 334.096 67.9444 334.759 70.9961C335.422 69.4703 336.185 67.6459 337.048 65.5229C337.91 63.3337 338.74 61.3103 339.536 59.4527L345.705 63.4332C344.777 66.2859 343.848 69.2381 342.919 72.2898C342.057 75.2751 341.294 78.1278 340.63 80.8478C339.967 83.5015 339.403 85.7903 338.939 87.7142C338.74 88.4439 338.574 89.3064 338.441 90.3015C338.375 91.2303 338.341 91.9932 338.341 92.5903C338.341 93.0546 338.341 93.6849 338.341 94.481C338.408 95.2771 338.474 96.0068 338.54 96.6703L327.495 97.7649C326.765 95.7746 325.936 93.0546 325.007 89.6049C324.144 86.0888 323.381 82.241 322.718 78.0615C322.121 73.8156 321.822 69.6361 321.822 65.5229C321.822 60.0829 321.988 54.842 322.32 49.8C322.718 44.7581 323.182 40.1805 323.713 36.0673C324.244 31.8878 324.675 28.4712 325.007 25.8176C325.272 24.4244 325.438 22.9649 325.504 21.439C325.571 19.8468 325.637 18.4205 325.703 17.16L340.431 18.6527ZM421.235 53.9795C422.761 53.6478 424.519 53.2498 426.509 52.7854C428.499 52.2546 430.258 51.7571 431.783 51.2927C433.442 50.762 435.664 50.0654 438.451 49.2029C441.237 48.3405 444.289 47.4781 447.606 46.6156C450.989 45.7532 454.373 45.0234 457.756 44.4263C461.206 43.8293 464.457 43.5307 467.508 43.5307C472.749 43.5307 477.327 44.5259 481.241 46.5161C485.221 48.44 488.306 51.2264 490.496 54.8751C492.685 58.5239 493.779 62.8693 493.779 67.9112C493.779 72.4224 492.784 76.5356 490.794 80.2507C488.87 83.9659 485.918 87.2166 481.938 90.0029C477.957 92.7893 472.981 95.0449 467.011 96.7698C461.106 98.561 454.207 99.6888 446.312 100.153L441.038 87.9132C446.743 87.7805 451.984 87.2829 456.761 86.4205C461.604 85.5581 465.783 84.3307 469.299 82.7385C472.882 81.08 475.635 78.9903 477.559 76.4693C479.549 73.9483 480.544 71.0293 480.544 67.7122C480.544 65.1912 479.947 63.002 478.753 61.1444C477.625 59.2205 476 57.7278 473.877 56.6664C471.754 55.6049 469.233 55.0742 466.314 55.0742C463.992 55.0742 461.405 55.3727 458.552 55.9698C455.699 56.5668 452.747 57.3298 449.696 58.2585C446.71 59.1873 443.758 60.1824 440.839 61.2439C437.92 62.3054 435.2 63.3337 432.679 64.3288C430.158 65.3239 428.068 66.1864 426.41 66.9161L421.235 53.9795ZM579.459 38.0576C578 38.9864 576.441 39.882 574.782 40.7444C573.19 41.6068 571.465 42.5024 569.608 43.4312C568.082 44.2273 566.191 45.1561 563.936 46.2176C561.746 47.279 559.358 48.4732 556.771 49.8C554.25 51.0605 551.696 52.4205 549.108 53.88C546.521 55.2732 544.099 56.6995 541.844 58.159C537.731 60.879 534.38 63.6985 531.793 66.6176C529.272 69.5366 528.012 72.7542 528.012 76.2703C528.012 79.7864 529.737 82.5064 533.186 84.4303C536.636 86.2878 541.811 87.2166 548.71 87.2166C552.16 87.2166 555.809 87.0839 559.657 86.8185C563.571 86.4868 567.419 86.0556 571.2 85.5249C574.981 84.9278 578.332 84.2644 581.251 83.5346L581.052 97.8644C578.265 98.3288 575.214 98.76 571.897 99.1581C568.646 99.5561 565.097 99.8546 561.249 100.054C557.467 100.253 553.42 100.352 549.108 100.352C544.133 100.352 539.522 99.9542 535.276 99.1581C531.097 98.4283 527.415 97.201 524.23 95.4761C521.112 93.7512 518.658 91.4293 516.866 88.5103C515.141 85.5912 514.279 82.0088 514.279 77.7629C514.279 73.5171 515.208 69.6693 517.065 66.2195C518.923 62.7698 521.444 59.5854 524.628 56.6664C527.879 53.7473 531.428 50.9942 535.276 48.4068C537.664 46.8146 540.185 45.2888 542.839 43.8293C545.493 42.3034 548.08 40.8439 550.601 39.4507C553.188 38.0576 555.577 36.7971 557.766 35.6693C560.021 34.4751 561.879 33.4468 563.339 32.5844C565.262 31.4566 566.954 30.4283 568.414 29.4995C569.873 28.5707 571.266 27.5756 572.593 26.5142L579.459 38.0576ZM529.405 16.762C531.063 21.1405 532.788 25.3532 534.579 29.4C536.437 33.4468 538.261 37.2283 540.053 40.7444C541.91 44.2605 543.602 47.4117 545.128 50.1981L533.883 56.8654C532.092 53.8137 530.234 50.3971 528.31 46.6156C526.386 42.8342 524.462 38.8537 522.539 34.6742C520.615 30.4283 518.757 26.1493 516.966 21.8371L529.405 16.762Z" fill="black"/>
</g>
<defs>
<clipPath id="clip0_33_50">
<rect width="585.366" height="120" fill="white"/>
</clipPath>
</defs>
</svg>
